<svg data-v-423bf9ae="" xmlns="http://www.w3.org/2000/svg" viewBox="0 0 221.33663569750985 60" class="font"><!----><!----><!----><g data-v-423bf9ae="" id="9683e8b5-1195-4858-8476-7bc0e4db903f" fill="#7B2F15" transform="matrix(2.1329540604962416,0,0,2.1329540604962416,0.000001853393513329138,20.881619217218148)"><path d="M1.48 5.99L1.48 5.99Q1.48 4.82 1.39 3.78Q1.30 2.74 1.19 1.96L1.19 1.96Q1.06 1.05 0.91 0.28L0.91 0.28L0 0.15L0 0.01Q0.34 0.04 0.83 0.07L0.83 0.07Q1.64 0.11 3.35 0.11L3.35 0.11Q4.20 0.11 5.07 0.07Q5.94 0.03 6.94-0.04L6.94-0.04Q6.73 0.45 6.55 1.13Q6.37 1.81 6.34 2.51L6.34 2.51Q6.22 1.92 5.88 1.50Q5.54 1.08 5.09 0.80Q4.63 0.53 4.08 0.41Q3.53 0.28 2.95 0.28L2.95 0.28Q2.84 1.16 2.81 2.18Q2.79 3.19 2.80 4.09L2.80 4.09Q2.81 5.14 2.86 6.17L2.86 6.17Q3.47 6.16 4.10 6.08L4.10 6.08Q4.63 6.01 5.26 5.84Q5.89 5.67 6.44 5.36L6.44 5.36Q6.37 5.82 6.35 6.26Q6.33 6.69 6.33 7.04L6.33 7.04Q6.33 7.45 6.34 7.80L6.34 7.80L6.22 7.76Q6.23 7.32 5.92 7.06Q5.60 6.80 5.11 6.67Q4.62 6.54 4.02 6.51Q3.42 6.48 2.86 6.50L2.86 6.50Q2.83 6.92 2.82 7.46Q2.81 7.99 2.83 8.58Q2.84 9.17 2.86 9.78Q2.87 10.39 2.90 10.96L2.90 10.96Q2.95 12.31 3.04 13.75L3.04 13.75L3.99 13.87L3.99 13.97Q3.78 13.96 3.50 13.93L3.50 13.93Q3.25 13.90 2.88 13.89Q2.51 13.87 2.00 13.87L2.00 13.87Q1.60 13.87 1.27 13.89Q0.95 13.92 0.74 13.94L0.74 13.94Q0.49 13.99 0.31 14.01L0.31 14.01L0.31 13.83L1.13 13.75Q1.23 12.24 1.30 10.79L1.30 10.79Q1.33 10.18 1.36 9.53Q1.40 8.88 1.43 8.25Q1.46 7.62 1.47 7.04Q1.48 6.45 1.48 5.99ZM14.52 9.52L14.52 9.52Q14.63 9.79 14.84 10.30Q15.05 10.82 15.28 11.35Q15.51 11.89 15.74 12.29Q15.96 12.70 16.11 12.73L16.11 12.73Q15.69 12.96 15.24 13.30Q14.78 13.64 14.45 14L14.45 14Q14.38 13.69 14.20 13.14Q14.01 12.59 13.71 11.93L13.71 11.93Q13.44 12.19 13.03 12.55Q12.63 12.91 12.17 13.23Q11.70 13.55 11.21 13.78Q10.71 14 10.26 14L10.26 14Q9.94 14 9.60 13.91Q9.25 13.82 8.97 13.64Q8.69 13.47 8.52 13.22Q8.34 12.96 8.34 12.64L8.34 12.64Q8.34 12.25 8.75 11.80Q9.16 11.35 9.76 10.91Q10.36 10.47 11.06 10.05Q11.76 9.63 12.35 9.27L12.35 9.27Q11.91 8.72 11.53 8.48Q11.14 8.23 10.68 8.23L10.68 8.23Q10.49 8.23 10.17 8.34Q9.86 8.46 9.56 8.60L9.56 8.60Q9.20 8.75 8.83 8.95L8.83 8.95Q9.62 8.41 10.35 7.98L10.35 7.98Q10.65 7.80 10.98 7.63Q11.30 7.46 11.60 7.32Q11.90 7.18 12.16 7.10Q12.42 7.01 12.60 7.01L12.60 7.01Q12.95 7.01 13.25 7.31Q13.55 7.62 13.80 8.03Q14.04 8.44 14.22 8.86Q14.39 9.28 14.52 9.52ZM11.77 12.64L11.77 12.64Q12.11 12.64 12.42 12.54Q12.73 12.45 12.96 12.26Q13.19 12.08 13.33 11.83Q13.47 11.58 13.47 11.28L13.47 11.28Q13.36 11.10 13.23 10.88Q13.10 10.67 12.99 10.47L12.99 10.47Q12.88 10.22 12.76 9.99Q12.64 9.76 12.52 9.60L12.52 9.60Q12.21 9.72 11.77 9.92Q11.33 10.12 10.92 10.39Q10.51 10.67 10.23 10.99Q9.94 11.31 9.94 11.66L9.94 11.66Q9.94 11.86 10.09 12.03Q10.23 12.21 10.48 12.34Q10.72 12.47 11.06 12.56Q11.40 12.64 11.77 12.64ZM21.10 0.01L21.10 0.01Q22.26 0.01 23.14 0.41Q24.02 0.80 24.60 1.37Q25.17 1.93 25.43 2.57Q25.69 3.21 25.61 3.68L25.61 3.68Q25.61 3.08 25.24 2.46Q24.88 1.85 24.25 1.34Q23.63 0.84 22.83 0.53Q22.02 0.21 21.14 0.21L21.14 0.21Q20.51 0.21 19.77 0.41Q19.03 0.62 18.40 0.95Q17.77 1.27 17.35 1.69Q16.93 2.11 16.93 2.55L16.93 2.55Q16.93 2.93 17.16 3.35Q17.40 3.77 17.78 4.19Q18.16 4.61 18.63 5.00Q19.11 5.40 19.58 5.74Q20.05 6.08 20.47 6.34Q20.90 6.61 21.18 6.75L21.18 6.75Q21.59 6.96 22.18 7.20Q22.76 7.43 23.31 7.80Q23.86 8.16 24.24 8.72Q24.63 9.28 24.63 10.12L24.63 10.12Q24.63 10.58 24.49 10.96Q24.35 11.34 24.11 11.67Q23.88 12.00 23.58 12.29Q23.28 12.57 22.96 12.82L22.96 12.82Q22.29 13.37 21.68 13.69Q21.07 14.01 20.43 14.01L20.43 14.01Q19.88 14.01 19.43 13.79Q18.98 13.57 18.66 13.22Q18.34 12.87 18.16 12.43Q17.99 12.00 17.99 11.58L17.99 11.58Q17.99 10.98 18.13 10.57Q18.27 10.16 18.49 9.88Q18.72 9.60 19.00 9.41Q19.29 9.21 19.59 9.03L19.59 9.03Q19.87 8.82 20.16 8.65Q20.45 8.48 20.78 8.37L20.78 8.37Q20.27 8.13 19.80 7.88Q19.33 7.63 18.98 7.35L18.98 7.35Q18.59 7.08 17.99 6.66Q17.39 6.24 16.81 5.73Q16.24 5.22 15.83 4.65Q15.41 4.07 15.41 3.50L15.41 3.50Q15.41 3.08 15.71 2.65Q16.02 2.23 16.50 1.84Q16.98 1.46 17.61 1.12Q18.23 0.78 18.86 0.54Q19.49 0.29 20.08 0.15Q20.66 0.01 21.10 0.01ZM23.07 10.96L23.07 10.96Q23.07 10.54 22.90 10.19Q22.72 9.83 22.43 9.53Q22.15 9.23 21.76 8.97Q21.38 8.72 20.96 8.51L20.96 8.51Q20.71 8.55 20.44 8.70Q20.17 8.85 19.95 9.08Q19.73 9.31 19.59 9.63Q19.45 9.94 19.45 10.30L19.45 10.30Q19.45 10.75 19.61 11.17Q19.78 11.59 20.10 11.91Q20.41 12.24 20.87 12.44Q21.34 12.64 21.94 12.64L21.94 12.64Q22.41 12.64 22.65 12.52Q22.89 12.40 22.98 12.19Q23.07 11.97 23.07 11.66Q23.07 11.35 23.07 10.96ZM28.32 5.24L28.32 5.24Q28.14 5.38 27.96 5.53L27.96 5.53Q27.80 5.67 27.61 5.85Q27.43 6.03 27.27 6.23L27.27 6.23Q27.12 5.98 26.95 5.80Q26.78 5.61 26.63 5.49L26.63 5.49Q26.46 5.33 26.29 5.24L26.29 5.24Q26.47 5.10 26.64 4.94L26.64 4.94Q26.80 4.80 26.96 4.62Q27.13 4.44 27.27 4.23L27.27 4.23Q27.43 4.47 27.61 4.65Q27.79 4.84 27.94 4.97L27.94 4.97Q28.13 5.12 28.32 5.24ZM26.07 8.12L26.07 8.12Q26.40 7.98 26.70 7.88Q27.01 7.77 27.28 7.65Q27.55 7.53 27.81 7.38Q28.07 7.24 28.32 7.01L28.32 7.01Q28.43 7.39 28.42 7.93Q28.41 8.47 28.36 9.06Q28.31 9.66 28.29 10.26Q28.28 10.86 28.40 11.35Q28.52 11.84 28.82 12.17Q29.12 12.50 29.72 12.56L29.72 12.56Q29.12 12.95 28.69 13.30Q28.27 13.65 27.85 14.01L27.85 14.01Q27.72 13.96 27.57 13.89Q27.41 13.82 27.27 13.69Q27.13 13.55 27.03 13.35Q26.92 13.15 26.91 12.82L26.91 12.82Q26.92 11.87 26.95 11.01Q26.98 10.15 26.92 9.50Q26.87 8.85 26.68 8.48Q26.49 8.11 26.07 8.12ZM33.08-6.83L33.08-6.83Q32.91-6.37 32.82-5.64Q32.73-4.90 32.69-4.00Q32.65-3.09 32.64-2.07Q32.63-1.04 32.63 0.01L32.63 0.01Q32.63 0.71 32.61 1.80Q32.59 2.88 32.57 4.11Q32.55 5.33 32.54 6.59Q32.52 7.84 32.53 8.90Q32.54 9.95 32.57 10.70Q32.61 11.45 32.69 11.65L32.69 11.65Q32.86 12.03 33.14 12.36Q33.42 12.68 33.95 12.73L33.95 12.73Q33.42 13.12 33.01 13.44Q32.61 13.76 32.27 14.10L32.27 14.10Q32.00 13.96 31.79 13.74Q31.58 13.52 31.44 13.29Q31.29 13.05 31.20 12.82Q31.11 12.59 31.09 12.40L31.09 12.40Q31.08 12.05 31.08 11.19Q31.08 10.33 31.09 9.19Q31.09 8.05 31.11 6.73Q31.14 5.42 31.15 4.16Q31.16 2.90 31.17 1.81Q31.18 0.71 31.18 0.01L31.18 0.01Q31.18-1.55 31.18-2.70Q31.19-3.84 31.17-4.66Q31.15-5.49 31.10-6.04Q31.05-6.59 30.95-6.99L30.95-6.99Q31.37-6.99 31.82-7.20Q32.27-7.41 32.74-7.71Q33.21-8.02 33.70-8.39Q34.20-8.75 34.72-9.06Q35.24-9.37 35.77-9.58Q36.30-9.79 36.85-9.79L36.85-9.79Q37.62-9.79 38.16-9.54Q38.70-9.30 39.03-8.90Q39.37-8.50 39.52-7.99Q39.68-7.48 39.68-6.93L39.68-6.93Q39.68-5.61 39.26-4.50Q38.84-3.39 38.14-2.46Q37.45-1.54 36.57-0.79Q35.69-0.04 34.76 0.55L34.76 0.55Q32.61 1.92 29.86 2.77L29.86 2.77Q32.56 1.90 34.69 0.53L34.69 0.53Q35.59-0.06 36.46-0.80Q37.32-1.55 38.01-2.48Q38.70-3.40 39.11-4.52Q39.52-5.63 39.52-6.93L39.52-6.93Q39.52-7.45 39.40-7.94Q39.27-8.43 38.96-8.81Q38.65-9.18 38.14-9.41Q37.62-9.63 36.85-9.63L36.85-9.63Q36.05-9.63 35.38-9.31Q34.72-8.99 34.24-8.53Q33.75-8.08 33.45-7.60Q33.15-7.13 33.08-6.83ZM50.12 9.52L50.12 9.52Q50.23 9.79 50.44 10.30Q50.65 10.82 50.88 11.35Q51.11 11.89 51.34 12.29Q51.56 12.70 51.72 12.73L51.72 12.73Q51.30 12.96 50.84 13.30Q50.39 13.64 50.05 14L50.05 14Q49.98 13.69 49.80 13.14Q49.62 12.59 49.31 11.93L49.31 11.93Q49.04 12.19 48.64 12.55Q48.23 12.91 47.77 13.23Q47.31 13.55 46.81 13.78Q46.31 14 45.86 14L45.86 14Q45.54 14 45.20 13.91Q44.86 13.82 44.58 13.64Q44.30 13.47 44.12 13.22Q43.95 12.96 43.95 12.64L43.95 12.64Q43.95 12.25 44.35 11.80Q44.76 11.35 45.36 10.91Q45.96 10.47 46.66 10.05Q47.36 9.63 47.95 9.27L47.95 9.27Q47.52 8.72 47.13 8.48Q46.75 8.23 46.28 8.23L46.28 8.23Q46.09 8.23 45.77 8.34Q45.46 8.46 45.16 8.60L45.16 8.60Q44.80 8.75 44.44 8.95L44.44 8.95Q45.22 8.41 45.95 7.98L45.95 7.98Q46.26 7.80 46.58 7.63Q46.90 7.46 47.20 7.32Q47.50 7.18 47.76 7.10Q48.02 7.01 48.20 7.01L48.20 7.01Q48.55 7.01 48.85 7.31Q49.15 7.62 49.40 8.03Q49.64 8.44 49.82 8.86Q49.99 9.28 50.12 9.52ZM47.38 12.64L47.38 12.64Q47.71 12.64 48.02 12.54Q48.33 12.45 48.56 12.26Q48.79 12.08 48.93 11.83Q49.07 11.58 49.07 11.28L49.07 11.28Q48.96 11.10 48.83 10.88Q48.71 10.67 48.59 10.47L48.59 10.47Q48.48 10.22 48.36 9.99Q48.24 9.76 48.12 9.60L48.12 9.60Q47.81 9.72 47.37 9.92Q46.93 10.12 46.52 10.39Q46.12 10.67 45.83 10.99Q45.54 11.31 45.54 11.66L45.54 11.66Q45.54 11.86 45.69 12.03Q45.84 12.21 46.08 12.34Q46.33 12.47 46.66 12.56Q47.00 12.64 47.38 12.64ZM62.40 7L62.40 7Q63.03 7 63.55 7.25Q64.06 7.50 64.44 7.92Q64.82 8.33 65.02 8.86Q65.23 9.39 65.23 9.95L65.23 9.95Q65.23 10.91 64.91 11.84Q64.60 12.78 63.98 13.52Q63.36 14.27 62.47 14.73Q61.57 15.20 60.40 15.20L60.40 15.20Q59.85 15.20 59.53 15.15Q59.21 15.11 58.93 15.04Q58.65 14.98 58.31 14.93Q57.97 14.88 57.40 14.88L57.40 14.88Q57.16 14.88 56.82 15.02Q56.48 15.16 56.15 15.42Q55.83 15.68 55.60 16.07Q55.37 16.46 55.37 16.97L55.37 16.97Q55.37 17.21 55.48 17.39Q55.59 17.58 55.78 17.72Q55.97 17.86 56.21 17.96Q56.45 18.06 56.70 18.13L56.70 18.13Q57.29 18.28 58.04 18.33L58.04 18.33Q57.25 18.31 56.63 18.16L56.63 18.16Q56.36 18.10 56.11 18.00Q55.86 17.91 55.66 17.76Q55.47 17.61 55.35 17.42Q55.23 17.22 55.23 16.97L55.23 16.97Q55.23 16.46 55.52 15.97Q55.82 15.48 56.31 15.10Q56.80 14.71 57.44 14.48Q58.09 14.24 58.79 14.24L58.79 14.24Q59.29 14.24 59.60 14.27Q59.92 14.31 60.21 14.35Q60.51 14.39 60.87 14.43Q61.22 14.46 61.82 14.46L61.82 14.46Q62.64 14.46 63.07 14.15Q63.50 13.85 63.70 13.38Q63.90 12.92 63.92 12.39Q63.94 11.86 63.94 11.42L63.94 11.42Q63.94 10.79 63.69 10.19Q63.43 9.59 63.01 9.13Q62.58 8.67 62.03 8.39Q61.47 8.11 60.87 8.11L60.87 8.11Q60.55 8.11 60.36 8.16Q60.17 8.22 60.06 8.27L60.06 8.27Q60.31 8.64 60.43 9.09Q60.55 9.55 60.55 9.95L60.55 9.95Q60.55 10.96 60.22 11.71Q59.89 12.46 59.50 12.96L59.50 12.96Q59.04 13.55 58.45 13.99L58.45 13.99Q58.65 13.64 58.80 13.22L58.80 13.22Q58.94 12.85 59.05 12.40Q59.16 11.94 59.16 11.42L59.16 11.42Q59.16 10.79 58.93 10.19Q58.69 9.59 58.28 9.13Q57.88 8.67 57.34 8.39Q56.81 8.11 56.21 8.11L56.21 8.11Q55.90 8.11 55.61 8.18Q55.31 8.26 55.15 8.46L55.15 8.46Q55.15 8.72 55.13 9.21Q55.10 9.70 55.10 10.35Q55.10 11.00 55.15 11.77Q55.19 12.54 55.31 13.37L55.31 13.37Q54.82 13.37 54.33 13.56Q53.83 13.75 53.45 13.99L53.45 13.99Q53.49 13.73 53.54 13.22Q53.58 12.70 53.61 12.07Q53.63 11.45 53.63 10.79Q53.63 10.12 53.59 9.55Q53.54 8.99 53.42 8.59Q53.31 8.19 53.13 8.11L53.13 8.11Q53.00 8.08 52.88 8.08Q52.77 8.08 52.65 8.09L52.65 8.09Q52.53 8.11 52.42 8.13L52.42 8.13Q52.89 7.83 53.33 7.57L53.33 7.57Q53.69 7.36 54.08 7.18Q54.46 7 54.67 7L54.67 7Q54.85 7 54.95 7.01Q55.05 7.03 55.09 7.13Q55.13 7.24 55.14 7.46Q55.15 7.69 55.15 8.11L55.15 8.11Q55.69 7.57 56.40 7.29Q57.11 7 57.74 7L57.74 7Q58.41 7 58.98 7.27Q59.56 7.55 59.91 8.02L59.91 8.02Q60.51 7.55 61.15 7.27Q61.80 7 62.40 7ZM72.62 9.52L72.62 9.52Q72.73 9.79 72.94 10.30Q73.15 10.82 73.38 11.35Q73.61 11.89 73.84 12.29Q74.06 12.70 74.21 12.73L74.21 12.73Q73.79 12.96 73.34 13.30Q72.88 13.64 72.55 14L72.55 14Q72.48 13.69 72.30 13.14Q72.11 12.59 71.81 11.93L71.81 11.93Q71.54 12.19 71.13 12.55Q70.73 12.91 70.27 13.23Q69.80 13.55 69.31 13.78Q68.81 14 68.36 14L68.36 14Q68.04 14 67.70 13.91Q67.35 13.82 67.07 13.64Q66.79 13.47 66.62 13.22Q66.44 12.96 66.44 12.64L66.44 12.64Q66.44 12.25 66.85 11.80Q67.26 11.35 67.86 10.91Q68.46 10.47 69.16 10.05Q69.86 9.63 70.45 9.27L70.45 9.27Q70.01 8.72 69.63 8.48Q69.24 8.23 68.78 8.23L68.78 8.23Q68.59 8.23 68.27 8.34Q67.96 8.46 67.66 8.60L67.66 8.60Q67.30 8.75 66.93 8.95L66.93 8.95Q67.72 8.41 68.45 7.98L68.45 7.98Q68.75 7.80 69.08 7.63Q69.40 7.46 69.70 7.32Q70 7.18 70.26 7.10Q70.52 7.01 70.70 7.01L70.70 7.01Q71.05 7.01 71.35 7.31Q71.65 7.62 71.90 8.03Q72.14 8.44 72.32 8.86Q72.49 9.28 72.62 9.52ZM69.87 12.64L69.87 12.64Q70.21 12.64 70.52 12.54Q70.83 12.45 71.06 12.26Q71.29 12.08 71.43 11.83Q71.57 11.58 71.57 11.28L71.57 11.28Q71.46 11.10 71.33 10.88Q71.20 10.67 71.09 10.47L71.09 10.47Q70.98 10.22 70.86 9.99Q70.74 9.76 70.62 9.60L70.62 9.60Q70.31 9.72 69.87 9.92Q69.43 10.12 69.02 10.39Q68.61 10.67 68.33 10.99Q68.04 11.31 68.04 11.66L68.04 11.66Q68.04 11.86 68.19 12.03Q68.33 12.21 68.58 12.34Q68.82 12.47 69.16 12.56Q69.50 12.64 69.87 12.64ZM80.18 6.99L80.18 6.99Q80.81 6.99 81.33 7.24Q81.84 7.49 82.22 7.90Q82.59 8.32 82.79 8.86Q82.99 9.39 82.99 9.97L82.99 9.97Q82.99 10.96 82.66 11.91Q82.32 12.85 81.70 13.58Q81.07 14.31 80.20 14.75Q79.32 15.19 78.25 15.19L78.25 15.19Q77.70 15.19 77.39 15.14Q77.07 15.09 76.78 15.04Q76.50 14.98 76.15 14.93Q75.81 14.88 75.21 14.88L75.21 14.88Q74.96 14.88 74.62 15.00Q74.28 15.12 73.98 15.37Q73.68 15.62 73.47 16.00Q73.25 16.38 73.25 16.88L73.25 16.88Q73.25 17.15 73.36 17.35Q73.47 17.54 73.66 17.70Q73.85 17.85 74.09 17.95Q74.33 18.06 74.58 18.13L74.58 18.13Q75.15 18.30 75.91 18.34L75.91 18.34Q75.11 18.31 74.49 18.16L74.49 18.16Q74.23 18.09 73.98 17.98Q73.72 17.88 73.53 17.72Q73.33 17.57 73.21 17.37Q73.09 17.16 73.09 16.88L73.09 16.88Q73.09 16.41 73.39 15.92Q73.68 15.43 74.17 15.04Q74.66 14.64 75.30 14.39Q75.94 14.14 76.62 14.14L76.62 14.14Q77.14 14.14 77.45 14.20Q77.76 14.25 78.04 14.31Q78.32 14.38 78.67 14.43Q79.02 14.48 79.62 14.48L79.62 14.48Q80.25 14.48 80.65 14.28Q81.06 14.08 81.29 13.70Q81.52 13.31 81.61 12.75Q81.70 12.18 81.70 11.42L81.70 11.42Q81.70 10.75 81.45 10.15Q81.20 9.55 80.77 9.09Q80.35 8.64 79.79 8.37Q79.24 8.11 78.64 8.11L78.64 8.11Q78.27 8.11 78.04 8.18Q77.80 8.25 77.59 8.44L77.59 8.44Q77.59 8.60 77.56 9.03Q77.53 9.46 77.53 10.11Q77.52 10.75 77.56 11.58Q77.60 12.40 77.76 13.34L77.76 13.34Q77.28 13.34 76.78 13.55Q76.29 13.76 75.91 14L75.91 14Q75.95 13.75 75.99 13.23Q76.03 12.71 76.06 12.09Q76.09 11.47 76.08 10.79Q76.08 10.12 76.03 9.55Q75.99 8.99 75.89 8.59Q75.78 8.19 75.60 8.11L75.60 8.11Q75.36 8.06 75.18 8.09L75.18 8.09Q75.10 8.11 75.03 8.13L75.03 8.13Q75.47 7.81 75.87 7.56L75.87 7.56Q76.20 7.35 76.55 7.17Q76.90 6.99 77.13 6.99L77.13 6.99Q77.28 6.99 77.37 7.02Q77.46 7.06 77.51 7.17Q77.56 7.29 77.57 7.50Q77.59 7.70 77.59 8.04L77.59 8.04Q78.26 7.55 78.92 7.27Q79.58 6.99 80.18 6.99ZM85.64 9.66L85.64 9.66Q85.64 10.08 85.80 10.59Q85.96 11.10 86.34 11.54Q86.72 11.98 87.33 12.29Q87.93 12.59 88.82 12.59L88.82 12.59Q89.28 12.59 89.54 12.46Q89.81 12.33 89.94 12.14Q90.06 11.96 90.10 11.75Q90.13 11.54 90.13 11.35L90.13 11.35Q90.13 10.75 89.90 10.16Q89.67 9.58 89.26 9.11Q88.86 8.65 88.31 8.37Q87.75 8.09 87.11 8.09L87.11 8.09Q86.69 8.09 86.41 8.25Q86.13 8.41 85.95 8.66Q85.78 8.90 85.71 9.18Q85.64 9.45 85.64 9.66ZM88.72 7L88.72 7Q89.14 7 89.62 7.18Q90.10 7.36 90.52 7.73Q90.93 8.09 91.20 8.66Q91.46 9.23 91.46 9.98L91.46 9.98Q91.46 10.42 91.26 10.88Q91.06 11.34 90.73 11.79Q90.40 12.24 89.97 12.63Q89.54 13.03 89.09 13.34Q88.63 13.64 88.18 13.82Q87.72 14 87.35 14L87.35 14Q86.77 14 86.25 13.76Q85.72 13.52 85.32 13.12Q84.91 12.71 84.67 12.19Q84.42 11.66 84.42 11.07L84.42 11.07Q84.42 10.28 84.85 9.54Q85.29 8.81 85.93 8.24Q86.58 7.67 87.33 7.34Q88.07 7 88.72 7ZM95.44 10.86L95.44 10.86Q95.17 10.86 94.79 10.81Q94.40 10.75 94.05 10.58Q93.69 10.40 93.44 10.08Q93.18 9.76 93.18 9.23L93.18 9.23Q93.18 8.81 93.40 8.48Q93.62 8.15 93.95 7.90Q94.29 7.64 94.71 7.48Q95.13 7.31 95.52 7.20Q95.91 7.08 96.24 7.04Q96.57 6.99 96.74 6.99L96.74 6.99Q96.87 6.99 97.05 6.99Q97.24 7 97.43 7.02Q97.62 7.04 97.80 7.06Q97.97 7.08 98.06 7.13L98.06 7.13Q98 7.31 97.94 7.54Q97.87 7.77 97.82 8.02Q97.76 8.26 97.73 8.50Q97.69 8.75 97.69 8.96L97.69 8.96Q97.59 8.75 97.43 8.50Q97.26 8.26 97.03 8.04Q96.80 7.83 96.50 7.69Q96.21 7.55 95.86 7.55L95.86 7.55Q95.59 7.55 95.39 7.63Q95.19 7.71 95.04 7.85Q94.89 7.99 94.81 8.16Q94.74 8.32 94.74 8.47L94.74 8.47Q94.74 8.79 94.89 9.04Q95.05 9.28 95.30 9.45Q95.55 9.62 95.88 9.70Q96.21 9.79 96.56 9.79L96.56 9.79Q97.13 9.79 97.54 9.90Q97.96 10.01 98.22 10.19Q98.48 10.37 98.59 10.61Q98.71 10.84 98.71 11.06L98.71 11.06Q98.71 11.80 98.30 12.36Q97.89 12.91 97.29 13.27Q96.70 13.64 96.05 13.82Q95.40 14 94.92 14L94.92 14Q94.21 14 93.65 13.82Q93.09 13.64 92.86 13.44L92.86 13.44Q93.02 13.20 93.13 12.77Q93.24 12.33 93.28 11.76L93.28 11.76Q93.46 12.11 93.77 12.40Q94.08 12.68 94.46 12.88Q94.84 13.08 95.26 13.19Q95.69 13.30 96.14 13.30L96.14 13.30Q96.29 13.30 96.49 13.26Q96.68 13.22 96.85 13.12Q97.02 13.02 97.14 12.85Q97.26 12.68 97.26 12.42L97.26 12.42Q97.26 12.17 97.13 11.89Q97.01 11.62 96.77 11.39Q96.53 11.16 96.19 11.01Q95.86 10.86 95.44 10.86ZM102.37 5.24L102.37 5.24Q102.19 5.38 102.00 5.53L102.00 5.53Q101.85 5.67 101.66 5.85Q101.47 6.03 101.32 6.23L101.32 6.23Q101.16 5.98 101.00 5.80Q100.83 5.61 100.67 5.49L100.67 5.49Q100.51 5.33 100.34 5.24L100.34 5.24Q100.52 5.10 100.69 4.94L100.69 4.94Q100.84 4.80 101.01 4.62Q101.18 4.44 101.32 4.23L101.32 4.23Q101.47 4.47 101.65 4.65Q101.84 4.84 101.99 4.97L101.99 4.97Q102.17 5.12 102.37 5.24ZM100.11 8.12L100.11 8.12Q100.45 7.98 100.75 7.88Q101.05 7.77 101.32 7.65Q101.60 7.53 101.86 7.38Q102.12 7.24 102.37 7.01L102.37 7.01Q102.48 7.39 102.47 7.93Q102.45 8.47 102.40 9.06Q102.35 9.66 102.34 10.26Q102.33 10.86 102.44 11.35Q102.56 11.84 102.86 12.17Q103.17 12.50 103.77 12.56L103.77 12.56Q103.17 12.95 102.74 13.30Q102.31 13.65 101.89 14.01L101.89 14.01Q101.77 13.96 101.61 13.89Q101.46 13.82 101.32 13.69Q101.18 13.55 101.07 13.35Q100.97 13.15 100.95 12.82L100.95 12.82Q100.97 11.87 101.00 11.01Q101.02 10.15 100.97 9.50Q100.91 8.85 100.72 8.48Q100.53 8.11 100.11 8.12Z"></path></g><!----><!----></svg>